<mxfile host="app.diagrams.net" modified="2021-12-13T18:33:55.514Z" agent="5.0 (Macintosh; Intel Mac OS X 10_15_7) AppleWebKit/537.36 (KHTML, like Gecko) Chrome/96.0.4664.93 Safari/537.36" etag="j2sg1Qt-G2WjvVzGsl2h" version="15.9.1" type="github">
  <diagram id="4ZILx8xgsTNaD1C6pcTs" name="Page-1">
    <mxGraphModel dx="1025" dy="469" grid="1" gridSize="10" guides="1" tooltips="1" connect="1" arrows="1" fold="1" page="1" pageScale="1" pageWidth="827" pageHeight="1169" math="0" shadow="0">
      <root>
        <mxCell id="0" />
        <mxCell id="1" parent="0" />
        <mxCell id="H9CHgpS7e8pxl9RoaeEQ-1" value="Kafka" style="rounded=1;whiteSpace=wrap;html=1;" vertex="1" parent="1">
          <mxGeometry x="240" y="100" width="120" height="40" as="geometry" />
        </mxCell>
        <mxCell id="H9CHgpS7e8pxl9RoaeEQ-2" value="" style="shape=flexArrow;endArrow=classic;html=1;rounded=0;entryX=0;entryY=0.5;entryDx=0;entryDy=0;endWidth=11.111111111111112;endSize=2.776666666666667;width=6.666666666666667;" edge="1" parent="1" target="H9CHgpS7e8pxl9RoaeEQ-1">
          <mxGeometry width="50" height="50" relative="1" as="geometry">
            <mxPoint x="160" y="120" as="sourcePoint" />
            <mxPoint x="160" y="100" as="targetPoint" />
          </mxGeometry>
        </mxCell>
        <mxCell id="H9CHgpS7e8pxl9RoaeEQ-3" value="" style="shape=flexArrow;endArrow=classic;html=1;rounded=0;entryX=0;entryY=0.5;entryDx=0;entryDy=0;endWidth=11.111111111111112;endSize=2.776666666666667;width=6.666666666666667;" edge="1" parent="1">
          <mxGeometry width="50" height="50" relative="1" as="geometry">
            <mxPoint x="360" y="119.5" as="sourcePoint" />
            <mxPoint x="440" y="119.5" as="targetPoint" />
          </mxGeometry>
        </mxCell>
        <mxCell id="H9CHgpS7e8pxl9RoaeEQ-4" value="Streaming Twitter Data" style="text;html=1;strokeColor=none;fillColor=none;align=center;verticalAlign=middle;whiteSpace=wrap;rounded=0;" vertex="1" parent="1">
          <mxGeometry x="99" y="75" width="130" height="30" as="geometry" />
        </mxCell>
        <mxCell id="H9CHgpS7e8pxl9RoaeEQ-5" value="Spark Pre-Processing" style="text;html=1;align=center;verticalAlign=middle;resizable=0;points=[];autosize=1;strokeColor=none;fillColor=none;" vertex="1" parent="1">
          <mxGeometry x="334" y="80" width="130" height="20" as="geometry" />
        </mxCell>
        <mxCell id="H9CHgpS7e8pxl9RoaeEQ-6" value="Kafka" style="rounded=1;whiteSpace=wrap;html=1;" vertex="1" parent="1">
          <mxGeometry x="440" y="100" width="120" height="40" as="geometry" />
        </mxCell>
        <mxCell id="H9CHgpS7e8pxl9RoaeEQ-9" value="" style="shape=flexArrow;endArrow=classic;html=1;rounded=0;entryX=0;entryY=0.5;entryDx=0;entryDy=0;endWidth=11.111111111111112;endSize=2.776666666666667;width=6.666666666666667;" edge="1" parent="1">
          <mxGeometry width="50" height="50" relative="1" as="geometry">
            <mxPoint x="560" y="119.5" as="sourcePoint" />
            <mxPoint x="640" y="119.5" as="targetPoint" />
          </mxGeometry>
        </mxCell>
        <mxCell id="H9CHgpS7e8pxl9RoaeEQ-10" value="Application Consuming" style="text;html=1;align=center;verticalAlign=middle;resizable=0;points=[];autosize=1;strokeColor=none;fillColor=none;" vertex="1" parent="1">
          <mxGeometry x="569" y="80" width="140" height="20" as="geometry" />
        </mxCell>
        <mxCell id="H9CHgpS7e8pxl9RoaeEQ-12" value="" style="shape=flexArrow;endArrow=classic;html=1;rounded=0;endWidth=11.111111111111112;endSize=2.776666666666667;width=6.666666666666667;exitX=0.5;exitY=1;exitDx=0;exitDy=0;" edge="1" parent="1" source="H9CHgpS7e8pxl9RoaeEQ-6">
          <mxGeometry width="50" height="50" relative="1" as="geometry">
            <mxPoint x="500" y="170" as="sourcePoint" />
            <mxPoint x="580" y="180" as="targetPoint" />
            <Array as="points">
              <mxPoint x="500" y="180" />
            </Array>
          </mxGeometry>
        </mxCell>
        <mxCell id="H9CHgpS7e8pxl9RoaeEQ-13" value="" style="shape=flexArrow;endArrow=classic;html=1;rounded=0;entryX=0;entryY=0.5;entryDx=0;entryDy=0;endWidth=11.111111111111112;endSize=2.776666666666667;width=6.666666666666667;exitX=0.5;exitY=1;exitDx=0;exitDy=0;" edge="1" parent="1" source="H9CHgpS7e8pxl9RoaeEQ-1">
          <mxGeometry width="50" height="50" relative="1" as="geometry">
            <mxPoint x="300" y="180" as="sourcePoint" />
            <mxPoint x="380" y="180" as="targetPoint" />
            <Array as="points">
              <mxPoint x="300" y="180" />
            </Array>
          </mxGeometry>
        </mxCell>
        <mxCell id="H9CHgpS7e8pxl9RoaeEQ-14" value="Further Processing&lt;br&gt;(If needed)" style="text;html=1;strokeColor=none;fillColor=none;align=center;verticalAlign=middle;whiteSpace=wrap;rounded=0;" vertex="1" parent="1">
          <mxGeometry x="584" y="190" width="110" height="30" as="geometry" />
        </mxCell>
        <mxCell id="H9CHgpS7e8pxl9RoaeEQ-15" value="Other Purpose Requiring Raw Data&lt;br&gt;" style="text;html=1;strokeColor=none;fillColor=none;align=center;verticalAlign=middle;whiteSpace=wrap;rounded=0;" vertex="1" parent="1">
          <mxGeometry x="334" y="190" width="116" height="30" as="geometry" />
        </mxCell>
      </root>
    </mxGraphModel>
  </diagram>
</mxfile>
